<?xml version="1.0" encoding="utf-8"?>
<!-- Generator: Adobe Illustrator 27.5.0, SVG Export Plug-In . SVG Version: 6.00 Build 0)  -->
<svg version="1.1" id="Layer_1" xmlns="http://www.w3.org/2000/svg" xmlns:xlink="http://www.w3.org/1999/xlink" x="0px" y="0px"
	 viewBox="0 0 1133.858 1133.858" style="enable-background:new 0 0 1133.858 1133.858;" xml:space="preserve">
<g>
	<path d="M90.598,365.31c32.189,46.535,77.527,82.582,126.486,110.154c49.605,27.618,103.905,47.289,160.153,55.628l0.016-0.109
		c-56.233-8.339-110.522-28.004-160.116-55.616c-48.95-27.568-94.272-63.605-126.451-110.121c1.072-0.76,1.518-1.879-0.168-4.495
		c-1.725-2.645-5.091-5.832-6.229-5.136c-1.13,0.691,0.447,5.101,2.218,7.808C88.232,366.1,89.521,366.032,90.598,365.31z"/>
	<path d="M799.188,903.12l0.074-0.001c0.022-5.842-0.539-11.53-1.587-16.996C798.815,892.777,799.161,898.783,799.188,903.12z"/>
	<path d="M784.359,851.059c5.579,7.776,10.156,17.023,13.102,27.347C795.185,869.047,791.208,859.166,784.359,851.059z"/>
	<path d="M777.499,844.401c-4.022-3.185-8.725-5.849-14.26-7.733c-11.172-3.809-22.854-3.031-32.9,2.182
		c-9.475,4.921-16.346,13.272-19.348,23.542c-5.134,17.501,5.336,36.733,23.332,42.861c7.235,2.465,14.798,1.957,21.301-1.421
		c6.142-3.186,10.6-8.602,12.547-15.252c3.328-11.364-3.463-23.841-15.137-27.826c-4.71-1.595-9.648-1.271-13.883,0.931
		c-4.004,2.082-6.917,5.615-8.184,9.955c-2.176,7.43,2.258,15.602,9.888,18.193c3.095,1.059,6.342,0.842,9.128-0.611
		c2.646-1.372,4.563-3.699,5.399-6.558c1.442-4.926-1.486-10.315-6.535-12.033c-2.058-0.713-4.223-0.566-6.082,0.399
		c-1.451,0.752-2.546,1.947-3.207,3.401c-0.136,0.241-0.236,0.482-0.306,0.741c-0.03,0.089-0.071,0.164-0.098,0.257l0.044,0.015
		c-0.229,1.224,0.188,2.539,1.227,3.378c1.501,1.225,3.714,0.988,4.935-0.512c1.211-1.511,0.987-3.712-0.521-4.935
		c-0.427-0.35-0.915-0.565-1.427-0.682c0.059-0.027,0.102-0.075,0.149-0.098c1.445-0.751,3.113-0.859,4.726-0.306
		c4.16,1.412,6.589,5.849,5.414,9.874c-0.702,2.401-2.31,4.35-4.522,5.509c-2.362,1.215-5.113,1.4-7.762,0.5
		c-6.744-2.297-10.688-9.492-8.766-16.045c1.132-3.876,3.734-7.025,7.31-8.884c3.814-1.982,8.257-2.278,12.511-0.833
		c10.793,3.687,17.091,15.205,14.016,25.674c-1.813,6.184-5.956,11.229-11.667,14.194c-6.074,3.155-13.159,3.62-19.939,1.319
		c-17.11-5.839-27.083-24.097-22.208-40.723c2.872-9.795,9.422-17.774,18.47-22.467c9.614-4.99,20.816-5.732,31.541-2.082
		c10.415,3.548,17.889,9.944,23.255,17.499c-1.721-2.8-3.557-5.444-5.486-7.899C779.494,846.703,778.507,845.53,777.499,844.401z"/>
	<path d="M873.278,384.523c-0.016,0.021-0.034,0.025-0.051,0.039C873.247,384.579,873.265,384.574,873.278,384.523z"/>
	<path d="M652.65,281.136c-0.004,0.014-0.016,0.017-0.021,0.029C652.646,281.172,652.654,281.164,652.65,281.136z"/>
	<path d="M1063.603,742.648c14.428-22.251-3.267-22.486-3.267-22.486s6.836,2.354-2.834,10.151
		c-9.677,7.763-40.871-24.982-94.284,5.991c-47.376,27.424-48.865,64.151-48.865,64.151c-4.475-1.106-8.628-41.758-8.628-41.758
		c-4.144,7.239-6.475,14.354-7.483,21.396c-4.347-10.615-9.634-20.182-16.128-28.653c-7.01-9.14-12.816-17.711-17.633-25.714
		c-5.567-21.13-6.172-47.248,12.69-68.146c10.06-11.136,23.502-17.499,37.846-17.92c13.491-0.402,26.227,4.612,35.863,14.098
		c16.354,16.102,16.59,43.661,0.545,61.443c-6.362,7.038-14.86,11.069-23.926,11.324c-8.52,0.254-16.567-2.913-22.652-8.897
		c-10.307-10.141-10.446-27.531-0.328-38.753c3.995-4.413,9.326-6.938,15.015-7.107c5.338-0.15,10.382,1.822,14.189,5.576
		c6.446,6.339,6.52,17.213,0.2,24.216c-2.487,2.752-5.791,4.311-9.311,4.426c-3.304,0.09-6.424-1.135-8.783-3.453
		c-3.958-3.908-4.005-10.605-0.101-14.925c1.51-1.678,3.514-2.629,5.662-2.689c0.076-0.006,0.152,0.018,0.238,0.014
		c-0.515,0.463-0.942,1.033-1.213,1.71c-0.953,2.388,0.203,5.085,2.584,6.044c2.381,0.953,5.088-0.202,6.04-2.587
		c0.659-1.638,0.295-3.428-0.761-4.698l0.043-0.047c-0.088-0.086-0.186-0.148-0.279-0.232c-0.246-0.257-0.521-0.471-0.829-0.665
		c-1.704-1.253-3.74-1.928-5.903-1.863c-2.777,0.08-5.376,1.307-7.303,3.456c-4.731,5.243-4.646,13.369,0.197,18.141
		c2.81,2.769,6.532,4.227,10.477,4.109c4.161-0.117,8.057-1.96,10.958-5.18c7.157-7.914,7.023-20.232-0.288-27.43
		c-4.261-4.207-9.904-6.413-15.887-6.244c-6.323,0.18-12.243,2.988-16.664,7.875c-10.942,12.134-10.763,30.949,0.418,41.96
		c6.542,6.437,15.19,9.836,24.351,9.57c9.707-0.284,18.787-4.576,25.57-12.095c16.878-18.694,16.598-47.698-0.627-64.647
		c-10.093-9.946-23.429-15.183-37.57-14.771c-14.983,0.439-29.007,7.074-39.485,18.68c-17.795,19.713-18.687,43.661-14.255,64.084
		c-27.303-48.495-17.072-74.274-17.072-74.274c-24.053,41.095,13.803,92.698,13.803,92.698s-73.937-60.106-46.628-130.564
		c37.768-97.48,119.869-56.984,119.869-56.984c-32.7-31.061-78.008-7.845-78.008-7.845c92.751-59.101,149.581,46.728,149.581,46.728
		c-36.834-92.48-114.551-72.279-114.551-72.279c18.753-12.256,41.964-14.486,41.964-14.486
		c-77.65-16.12-142.392,78.99-132.445,147.134c9.957,68.102,61.148,101.924,61.148,101.924c-2.601-0.471-5.367-1.425-8.235-2.747
		c-19.908-19.466-42.991-41.378-69.233-64.295c-5.956-5.142-12.103-10.342-18.439-15.555c-9.653-12.008-24.745-31.779-41.315-57.94
		c-27.925-43.174-62.643-113.854-38.894-183.747c4.567-14.824,11.231-28.876,19.419-41.797c28.668-7.872,48.063,2.657,48.231,3.262
		c6.04,2.701,18.57,10.855,26.941,26.868c9.063,14.884,11.6,38.858-4.708,51.09c-14.359,12.713-38.333,7.669-44.612-3.839
		c-6.638-11.776-0.426-22.304-2.56-22.63c-0.064-0.913-10.189,8.533-3.363,25.889c7.647,16.567,36.964,24.243,56.8,8.169
		c21.619-15.491,18.312-47.608,7.863-63.778c-9.432-18.181-24.254-28.018-31.642-31.318c-0.143-0.744-18.44-9.922-44.529-5.894
		c29.58-39.429,73.263-65.728,111.554-66.62c56.226,0.772,76.124,43.714,76.152,42.915c4.973,7.717,13.497,29.547,1.163,52.106
		c-10.226,22.993-49.914,30.816-70.146,10.262c-9.688-9.775-14.04-25.329-7.537-36.396c5.909-11.19,18.818-16.057,28.252-13.479
		c19.196,6.373,22.058,22.807,23.204,21.883c-0.43-0.361-2.577-16.619-22.654-24.066c-10.267-3.104-24.688,1.977-31.347,14.278
		c-7.38,12.34-2.636,29.53,7.748,40.103c22.004,22.354,64.088,14.198,75.629-10.908c13.179-23.984,3.984-47.522-1.189-55.533
		c-0.155,0.736-20.671-43.689-79.192-44.435c-40.501,1.153-85.706,29.09-115.552,70.588c-7.248,1.454-15.018,3.933-23.126,7.898
		c-19.562,8.095-38.015,28.968-44.564,54.188c-6.835,25.117-4.605,53.903,4.676,79.141c18.093,50.68,49.252,91.908,76.241,120.728
		c-10.066-7.12-20.525-14.071-31.375-20.736c-40.304-36.882-87.391-87.2-123.408-147.403c-12.25-22.584-22.482-47.311-29.341-72.088
		c-0.543-2.157-1.075-4.317-1.592-6.48c-0.942-16.688,3.517-30.604,9.78-40.272c1.336-2.081,2.816-4.142,4.511-5.947
		c1.831-1.97,4.277-4.112,7.071-4.411c3.852-0.397,7.964,0.46,8.393,4.976c-2.776-3.58-6.038,0.961-4.897,4.104
		c0.818,2.236,3.351,4.021,5.798,3.729c3.362-0.414,5.402-4.163,4.986-7.309c-0.754-5.387-6.693-7.336-11.353-7.611
		c-1.898-0.117-5.159,0.612-6.796,1.595c0.418-1.446,2.361-2.267,3.54-3.078c2.613-1.865,5.708-2.863,8.861-3.406
		c2.659-0.449,5.31-0.089,7.995-0.218c3.661-0.246,6.696-0.504,10.303,0.282c3.749,0.82,7.017,3.058,10.044,5.299
		c-0.335-1.559,0.082-3.404-0.064-5.023c-0.493-5.279-3.821-12.254-8.859-14.528c-2.293-1.009-5.121-0.864-7.542-1.311
		c0.409,0.059,1.601-0.616,2.089-0.724c0.865-0.175,1.757-0.217,2.639-0.153c1.676,0.127,3.306,0.708,4.755,1.549
		c3.47,1.959,5.648,5.515,7.805,8.753c2.696,4.115,9.28,6.232,13.855,4.438c-1.316,0.52-4.926-7.122-4.399-8.51
		c-0.509,1.323,4.78,5.35,6,6.046c3.093,1.841,8.246,1.969,9.419,6.144c1.406-3.545,1.069-11.643-3.036-16.802
		c-2.204-2.802-3.823-5.162-6.92-7.033c1.046,0.632,2.256,0.772,3.321,1.617c0.775,0.609,1.5,1.259,2.278,1.85
		c6.221,4.661,9.688,14.906,10.843,24.074c0.889,6.945-1.772,17.995-5.43,23.911c-3.785,6.133-12.424,11.581-19.807,11.322
		c-1.24-0.049-2.097-0.944-3.508-0.74c2.874-0.259,5.268-1.92,6.167-4.727c1.963-6.23-3.091-13.267-9.899-11.628
		c-4.988,1.186-7.435,7.08-5.387,11.645c1.332,2.919,4.149,5.327,7.183,6.32c4.396,1.434,9.035,1.268,13.267-0.633
		c23.739-10.628,24.748-45.372,7.445-61.163c-7.315-6.673-16.934-11.545-26.876-11.732c-11.998-0.238-22.955,5.691-31.235,14.07
		c-3.103,3.105-5.866,6.574-8.339,10.196c-12.488,18.316-16.771,36.347-16.889,52.31c-0.546-2.547-1.069-5.098-1.581-7.652
		c-6.453-37.423-3.908-73.205,12.478-99.933c33.159-49.114,81.166-47.953,81.122-48.093c10.067-0.23,33.704-0.296,55.749,15.214
		c22.068,13.282,37.182,51.729,17.225,76.039c-9.709,10.992-25.67,16.551-38.328,12.806c-12.722-4.126-22.148-14.779-24.303-24.834
		c-1.859-10.262,4.455-19.001,9.926-20.665c5.66-1.507,8.734,1.777,9.05,1.174c-0.273-0.102-3.027-3.671-9.456-2.524
		c-6.437,1.704-13.601,10.77-11.886,22.432c2.236,11.32,11.915,22.578,25.744,27.34c14.254,4.33,31.147-1.57,41.92-13.437
		c18.313-22.361,9.879-54.339-6.953-72.509c1.749,1.588,3.215,3.16,4.245,4.668c7.975,11.685,14.281,28.416,34.854,30.219
		c0,0-3.444-6.153-2.75-7.964c0,0,13.033,8.297,33.863-1.476c23.502-11.005,19.682-29.629,24.68-31.105
		c5.012-1.468,4.186,1.457,4.186,1.457s4.166-6.161-6.973-6.52c0,0-0.084-28.319-29.018-35.37c0,0-1.002,2.434,2.781,4.282
		c0,0-35.151-0.707-35.828,23.92c0,0,4.312-8.045,11.532-6.876c7.232,1.18,7.903,3.848,18.633,3.012c0,0-11.274,1.539-7.626,12.869
		c0,0,10.039-7.404,15.901,4.227c5.839,11.621-1.491,21.518-10.324,24.823c0,0,2.102-1.509,0.182-4.784
		c0,0-12.439,10.327-25.212,3.727c0,0,20.497,3.143,22.852-12.101c0,0-2.181,2.064-6.968,2.667c0,0,0.629-0.482,0.36-3.528
		c0,0-12.349,3.742-18.306-2.861c-5.961-6.594-20.645-14.92-32.653-16.275c0,0,3.114-1.601,4.96-4.61c0,0-7.898,1.316-15.974,1.498
		c-3.46,0.058-21.915-4.621-21.67-4.542c0.276,0.086,0.856,0.326,1.657,0.683c-15.37-5.152-29.062-5.028-36.223-4.895
		c-0.023,0.229-49.636-0.958-83.868,49.947c-10.791,17.845-15.697,39.192-16.095,62.165c-3.362-26.103-4.996-52.436-4.996-78.734
		c0-1.788,0.008-3.573,0.023-5.36c0.914-68.693,13.036-138.455,44.117-200.244c1.445,0.71,2.909,0.537,4.734-2.813
		c1.829-3.398,3.274-8.88,1.862-9.695c-1.403-0.806-5.214,3.469-7.083,6.956c-1.866,3.429-1.025,4.771,0.388,5.503
		c-31.092,61.81-43.216,131.587-44.129,200.294c-0.015,1.788-0.022,3.573-0.022,5.36c0,26.549,1.665,53.135,5.092,79.485
		c-0.188,14.51,1.415,29.659,4.466,44.977c-16.56-51.879-40.912-101.242-70.953-146.627
		c-38.205-57.111-86.393-109.012-146.145-143.895c0.783-1.383,0.756-2.969-2.675-4.825c-3.469-1.905-8.992-3.413-9.731-1.973
		c-0.739,1.454,3.46,5.263,6.845,7.115c3.355,1.814,4.678,1.16,5.504-0.221c59.732,34.871,107.91,86.76,146.109,143.858
		c30.223,45.664,54.686,95.354,71.247,147.581c1.905,9.374,4.347,18.807,7.253,28.192c0.806,2.858,1.692,5.555,2.615,8.063
		c0.256,0.758,0.514,1.516,0.776,2.272c0.308,1.303,0.619,2.604,0.916,3.909l0.109-0.024c-0.22-0.967-0.453-1.931-0.679-2.898
		c1.417,4.048,2.911,8.079,4.482,12.084c-3.173-5.083-7.044-10.624-11.727-16.363c-23.614-28.972-65.62-63.229-127.167-70.766
		l0.004-0.158c-0.68-0.023-1.39-0.053-2.119-0.086c-4.088-0.457-8.256-0.802-12.515-1.014c-29.037-3.361-73.888-15.707-87.39-59.274
		c-5.333-17.31-3.64-35.19,4.743-50.346c7.929-14.257,20.966-24.412,36.785-28.537c26.789-7.062,55.54,9.694,64.129,37.321
		c3.365,10.957,2.326,22.245-2.996,31.829c-5.022,8.991-13.248,15.392-23.228,18.024c-16.88,4.449-35.014-6.125-40.415-23.556
		c-2.111-6.874-1.472-13.976,1.863-19.97c3.111-5.639,8.298-9.642,14.517-11.301c10.584-2.771,21.899,3.854,25.268,14.757
		c1.341,4.261,0.943,8.646-1.118,12.352c-1.97,3.521-5.11,5.999-9.003,6.995c-6.501,1.722-13.51-2.361-15.537-9.083
		c-0.845-2.612-0.572-5.282,0.687-7.527c0.033-0.09,0.099-0.139,0.153-0.255c0.153,0.821,0.471,1.608,1.001,2.302
		c1.901,2.489,5.421,2.94,7.898,1.056c2.433-1.878,2.905-5.423,1.039-7.87c-1.315-1.7-3.382-2.406-5.332-2.105l-0.04-0.048
		c-0.131,0.023-0.295,0.095-0.404,0.131c-0.421,0.101-0.831,0.248-1.212,0.452c-2.335,1.003-4.315,2.67-5.578,4.947
		c-1.635,2.959-1.954,6.421-0.928,9.741c2.504,8.139,11.027,13.054,18.97,10.968c4.608-1.207,8.43-4.155,10.72-8.331
		c2.451-4.404,2.925-9.58,1.387-14.563c-3.799-12.33-16.652-19.795-28.659-16.63c-6.998,1.849-12.786,6.342-16.277,12.664
		c-3.707,6.668-4.471,14.526-2.104,22.162c5.829,18.838,25.48,30.24,43.834,25.432c10.723-2.829,19.573-9.702,24.942-19.385
		c5.677-10.266,6.818-22.347,3.223-34.032c-8.996-29.035-39.29-46.635-67.535-39.203c-16.552,4.364-30.222,14.964-38.486,29.901
		c-8.781,15.817-10.539,34.476-4.941,52.53c11.419,36.874,44.328,52.105,72.2,58.319c-1.488,0.05-2.983,0.11-4.491,0.19
		c-8.862,0.471-17.746,1.617-26.409,3.708c-23.172,5.54-44.915,18.308-57.108,39.277c-10.114,17.461-11.782,39.136-7.909,58.824
		c9.178,46.537,70.35,81.249,113.646,51.323c7.731-5.36,12.885-13.196,15.019-22.317c1.469-6.275,0.254-13.724-3.422-19.08
		c-5.688-8.284-18.464-10.255-25.753-2.913c-9.99,10.085-3.11,26.249,9.705,29.35c5.803,1.412,11.188-0.973,14.678-5.708
		c-1.833,2.269-1.21,4.663-2.419,6.846c-7.315,13.034-25.782,22.303-40.36,22.43c-14.101,0.114-36.004-6.921-47.083-15.725
		c-14.674-11.613-28.737-28.343-30.284-44.013c-0.195-1.965-0.577-3.931-0.821-5.901c-0.324-2.708,0.703-4.931,0.677-7.425
		c0.003,7.273,2.424,12.566,4.938,19.354c4.658,12.523,18.255,21.573,25.868,22.887c-5.995-6.392-0.776-15.464-0.709-22.735
		c0.033-2.866-1.348-16.22-4.211-16.747c2.946,0.552,12.399,14.825,10.125,16.583c7.9-6.058,11.155-19.706,6.891-28.703
		c-3.405-7.088-7.227-14.592-7-22.635c0.097-3.417,0.792-6.839,2.359-9.892c0.78-1.58,1.79-3.073,3.01-4.381
		c0.68-0.74,3.093-2.049,3.408-2.875c-1.743,4.656-4.947,9.413-5.594,14.421c-1.413,11.12,7.212,24.217,15.839,30.592
		c2.648,1.951,6.236,3.215,8.61,5.405c-0.698-7.598-1.181-15.635,1.353-22.972c2.407-7.055,6.061-12.018,10.299-18.143
		c3.083-4.452,5.213-9.435,8.794-13.549c4.244-4.893,9.243-9.198,15.219-11.821c2.604-1.117,6.063-3.662,9.013-2.876
		c-3.411,1.783-8.092,6.67-9.908,10.103c-4.39,8.351-7.259,20.671,1.269,27.614c5.005,4.012,13.626,4.472,17.878-0.95
		c3.072-3.895,2.672-10.188-0.388-13.983c-4.24-5.251-15.503-4.355-12.206,4.196c-7.376-5.458-4.534-13.503,0.2-19.729
		c3.452-4.505,9.726-6.496,15.018-7.602c4.95-1.032,10.028-1.436,15.034-1.58c39.614-1.135,95.078,19.572,135.158,85.337
		c0.046,0.103,0.091,0.207,0.137,0.309c0.718,2.031,1.449,4.059,2.193,6.081l0.105-0.039c-0.585-1.591-1.156-3.186-1.726-4.782
		c3.76,8.286,7.81,16.4,12.095,24.255c34.811,57.613,79.578,105.943,118.896,142.082c-23.536-13.965-48.872-26.486-76.086-36.324
		c-16.253-6.177-33.216-11.003-50.562-14.462c-63.313-17.845-128.87-27.808-194.553-30.615c-10.892-0.413-21.811-0.627-32.742-0.627
		c-86.708,0-174.166,13.474-253.815,48.567c-0.933-2.061-2.766-3.365-7.766-0.966c-5.072,2.393-11.396,7.473-10.355,9.521
		c1.047,2.056,8.91,0.407,13.848-1.934c4.886-2.348,5.227-4.414,4.317-6.521c79.631-35.083,167.074-48.555,253.771-48.555
		c10.929,0,21.848,0.214,32.737,0.627c65.223,2.785,130.323,12.628,193.221,30.239c-57.251-11.169-118.626-7.273-172.762,13.682
		c-21.943,8.486-43.051,20.251-61.604,35.175c-20.729,11.173-40.032,10.309-52.881,5.111c-1.97-0.787-3.948-1.702-5.747-2.836
		c-1.96-1.228-4.164-2.94-4.872-5.245c-0.96-3.185-0.907-6.793,2.831-7.891c-2.568,2.925,1.794,4.937,4.257,3.466
		c1.755-1.055,2.848-3.481,2.204-5.498c-0.898-2.769-4.389-3.88-6.977-3.018c-4.419,1.512-5.097,6.84-4.571,10.812
		c0.21,1.623,1.354,4.255,2.449,5.474c-1.286-0.116-2.294-1.623-3.171-2.486c-1.997-1.898-3.342-4.348-4.313-6.918
		c-0.813-2.169-0.939-4.463-1.483-6.707c-0.803-3.049-1.516-5.565-1.438-8.734c0.081-3.295,1.438-6.414,2.835-9.334
		c-1.26,0.535-2.884,0.484-4.225,0.872c-4.373,1.273-9.715,5.215-10.813,9.837c-0.479,2.097,0.104,4.456,0.12,6.573
		c-0.017-0.358-0.777-1.251-0.95-1.648c-0.288-0.7-0.468-1.446-0.558-2.197c-0.165-1.435,0.058-2.905,0.534-4.265
		c1.086-3.242,3.733-5.658,6.114-8.005c3.029-2.943,3.744-8.841,1.486-12.408c0.655,1.027-5.204,5.313-6.46,5.097
		c1.197,0.213,3.735-4.903,4.123-6.044c1.051-2.908,0.32-7.273,3.65-8.943c-3.219-0.609-9.994,0.994-13.677,5.292
		c-2.004,2.315-3.732,4.064-4.807,6.979c0.364-0.984,0.285-2.028,0.825-3.062c0.388-0.754,0.818-1.47,1.189-2.223
		c2.92-6.004,10.998-10.595,18.54-13.06c5.712-1.877,15.465-1.43,21.047,0.691c5.79,2.196,11.789,8.594,12.771,14.862
		c0.16,1.055-0.457,1.923-0.052,3.08c-0.686-2.381-2.476-4.132-4.99-4.433c-5.572-0.643-10.688,4.764-8.196,10.239
		c1.81,4.015,7.179,5.119,10.696,2.649c2.246-1.598,3.819-4.365,4.161-7.086c0.495-3.94-0.399-7.827-2.691-11.085
		c-12.822-18.296-42.29-13.493-52.794,3.666c-4.438,7.255-6.984,16.158-5.523,24.574c1.75,10.158,8.532,18.435,16.945,24.055
		c3.124,2.113,6.499,3.878,9.955,5.376c29.583,12.785,54.651,5.879,71.109-2.798c-9.987,8.385-19.194,17.692-27.298,27.954
		c-24.064,29.937-37.146,67.371-39.792,104.006c-4.596,36.261,5.535,75.129,30.552,99.428
		c23.869,25.283,57.957,36.087,88.035,33.624c31.261-3.256,52.592-30.223,54.219-54.866c1.594-12.278-2.64-24.784-10.974-31.847
		c-8.214-7.197-18.77-9.694-27.633-8.033c-9.11,2.307-13.885,10.899-13.824,17.788c-0.309,7.513,7.089,11.743,11.711,10.413
		c3.239-0.807,4.462-3.725,4.187-5.919c0.324,3.036-3.279,7.429-8.404,5.441c-6.591-1.311-9.315-10.989-4.586-18.299
		c3.997-8.076,15.165-11.044,25.278-7.392c10.288,2.846,19.589,12.353,22.025,24.596c1.784,12.263-1.077,26.313-8.675,38.083
		c-7.544,11.797-19.944,21.374-34.65,25.126c-14.672,3.553-31.121,1.657-46.503-2.78c-30.968-9.311-58.375-34.381-69.391-66.436
		c-11.055-31.933-5.806-68.102,3.069-99.328c19.206-64.818,74.849-103.868,117.878-119.795c1.995-0.804,4.054-1.585,6.143-2.354
		c-2.681,2.045-5.242,4.391-7.662,7.116c0,0,13.409,1.954,15.484,5.063c0,0-27.298,9.97-35.042,52.39
		c-8.696,47.81,24.584,63.549,21.371,72.732c-3.228,9.172-6.874,4.581-6.874,4.581s5.044,13.336,17.835-2.945
		c0,0,44.327,32.489,87.24-2.704c0,0-2.754-4.318-9.767-0.776c0,0,39.834-51.782,2.116-81.138c0,0,7.806,15.701-1.974,25.176
		c-9.819,9.459-14.695,7.382-25.232,24.4c0,0,10.025-18.653-11.676-26.221c0,0,0.47,23.536-24.109,18.941
		c-24.599-4.63-31.935-27.002-27.409-44.021c0,0,0.064,4.878,7.285,5.791c0,0-2.424-30.532,22.007-42.035
		c0,0-27.536,27.057-6.335,48.118c0,0-0.827-5.625,3.499-13.486c0,0,0.077,1.515,5.12,4.585
		c-2.515-1.537,17.364-27.233,20.556-29.786c19.3-15.588,40.349-26.4,63.759-34.265c7.683-2.559,13.87-5.713,21.405-7.073
		c12.823,1.237,25.86,3.284,38.967,6.286c24.437,5.568,48.624,14.207,72.086,24.98c-23.541-5.972-51.647-5.899-74.932,14.908
		c-13.336,11.929-21.08,28.042-21.795,45.369c-0.662,16.344,5.096,31.878,16.246,43.729c19.005,20.224,51.964,21.059,73.433,1.855
		c8.639-7.732,13.65-18.154,14.112-29.38c0.441-10.591-3.293-20.656-10.516-28.346c-12.342-13.123-33.734-13.678-47.652-1.222
		c-5.641,5.035-8.9,11.839-9.211,19.156c-0.273,6.913,2.161,13.48,6.878,18.493c8.071,8.598,22.048,8.951,31.152,0.813
		c3.696-3.313,5.844-7.777,6.044-12.601c0.19-4.555-1.415-8.883-4.522-12.199c-5.335-5.674-14.577-5.915-20.604-0.535
		c-2.46,2.194-3.896,5.185-4.035,8.398c-0.097,2.477,0.654,4.85,2.046,6.855c0.206,0.371,0.451,0.674,0.729,0.969
		c0.109,0.12,0.165,0.232,0.263,0.338l0.058-0.059c1.427,1.242,3.45,1.707,5.327,0.971c2.727-1.077,4.078-4.184,3.016-6.949
		c-1.042-2.775-4.1-4.161-6.821-3.097c-0.779,0.309-1.422,0.791-1.956,1.371c-0.003-0.09-0.024-0.185-0.018-0.281
		c0.104-2.478,1.218-4.774,3.148-6.503c4.964-4.432,12.562-4.267,16.937,0.397c2.613,2.758,3.955,6.388,3.802,10.208
		c-0.17,4.065-2.004,7.874-5.155,10.693c-8.057,7.203-20.397,6.908-27.512-0.644c-4.215-4.471-6.387-10.344-6.126-16.517
		c0.261-6.585,3.206-12.715,8.297-17.239c12.889-11.526,32.623-11.063,44.018,1.043c6.717,7.148,10.178,16.508,9.78,26.371
		c-0.436,10.487-5.128,20.238-13.215,27.472c-20.438,18.268-51.744,17.515-69.8-1.688c-10.645-11.307-16.148-26.136-15.506-41.754
		c0.701-16.578,8.118-32.025,20.918-43.456c29.19-26.106,66.478-18.36,91.791-7.876c34.655,17.833,67.371,39.965,96.491,63.319
		c27.465,21.866,52.56,44.196,75.037,64.903c1.158,1.299,2.291,2.534,3.4,3.707c-19.747-10.466-40.339-16.595-59.479-19.215
		c-47.017-5.999-93.065,4.012-135.973,37.348c-20.663,16.763-38.85,41.71-47.269,71.837c-8.684,29.887-7.457,64.552,5.697,95.34
		c12.729,31.146,37.814,57.691,68.25,68.646c30.074,11.646,62.542,9.033,86.984-1.974c24.829-10.644,41.889-28.967,49.727-45.623
		c8.291-16.636,9.106-30.481,9.604-37.007c0.346-10.41-0.984-20.257-3.559-29.283c-2.945-10.324-7.522-19.57-13.102-27.347
		c-3.964-5.525-8.43-10.313-13.177-14.212c-17.511-14.493-37.198-17.64-51.459-16.658c-11.971,0.91-20.852,4.143-26.885,7.147
		c7.938-3.849,20.262-7.699,37.784-6.585c14.645,1.201,32.883,7.955,46.876,23.65c1.008,1.129,1.995,2.302,2.955,3.525
		c1.93,2.455,3.766,5.1,5.486,7.899c5.368,8.733,9.578,19.038,11.735,30.297c1.048,5.466,1.609,11.154,1.587,16.996
		c-0.024,6.307-0.726,12.79-2.244,19.362c-1.417,6.254-4.841,19.087-15.189,33.497c-10.372,14.157-28.829,28.805-53.49,36.077
		c-24.382,7.378-55.058,6.306-82.062-7.525c-27.35-13.291-48.191-40.02-58.529-69.85c-10.366-29.51-9.995-61.766-0.789-89.312
		c7.92-24.407,22.344-44.951,39.04-59.979c-19.656,20.344-37.427,53.965-42.409,77.563c-7.146,33.951-0.162,68.684,23.584,94.646
		c16.466,17.961,31.316,32.733,55.97,36.711c31.205,5.025,66.157-17.772,71.409-41.736c-7.938,19.768-25.15,30.497-42.067,34.915
		c-40.446,10.61-67.159-17.755-72.753-24.422c21.516,11.451,27.878,15.384,50.267,10.839c-11.321,0.749-27.506-1.1-34.463-9.098
		c1.827,2.125,13.107,3.072,15.928,2.719c19.653-2.388,30.747-15.578,30.9-20.969c-11.303,13.57-27.96,18.681-46.216,13.366
		c-21.639-6.268-32.789-20.586-41.378-37.733c-9.942-19.814-9.048-43.764-4.16-64.867c-2.481,10.632-0.694,22.802,2.024,33.242
		c3.03,11.758,8.78,22.851,16.413,32.247c7.6,9.296,21.372,20.15,33.872,20.237c-2.104-0.005-33.983-6.55-47.425-62.865
		c-9.662-40.341,20.171-76.461,40.978-103.243c39.682-28.722,81.802-37.953,126.143-32.955c21.243,2.668,44.621,9.748,66.714,22.676
		c4.063,2.378,8.07,4.962,12.002,7.736c2.083,1.952,4.141,3.881,6.17,5.783c-21.078-13.697-46.046-24.766-68.197-22.784
		c-25.653,2.335-63.151,15.578-69.517,44.227c11.128-11.51,26.985-22.875,41.711-29.116c-3.997,5.416-9.094,8.574-7.536,15.844
		c-1.052-5.004,21.543-15.74,25.296-17.046c31.498-10.864,61.836,3.555,86.969,22.027c-19.088-12.242-49.683-12.359-65.33,5.205
		c10.425-11.703,39.718-9.515,52.235-4.364c-9.908-3.778-27.461,0.639-37.336,3.936c-12.069,4.017-23.115,10.788-32.406,19.43
		c16.15-15.066,54.305-22.404,75.226-16.478c15.178,4.297,29.929,12.789,39.656,25c2.218,2.789,4.56,5.603,6.957,8.443
		c8.736,15.058,15.573,31.38,20.438,48.272c0.207,0.875,0.311,1.349,0.311,1.349c-0.015-0.151-0.031-0.3-0.046-0.45
		c2.409,8.498,4.316,17.136,5.716,25.827c-12.336-27.299-35.764-57.033-66.311-56.797c16.754,10.093,34.633,25.856,46.103,41.676
		c-7.544-3.273-12.702-8.475-20.931-4.627c5.669-2.625,24.648,21.331,27.232,25.442c7.674,12.279,11.482,25.263,12.545,38.469
		c-1.206,14.84-2.856,29.45-4.426,41.438c-2.701,10.127-6.362,20.092-10.498,29.674c9.341-26.082,1.093-62.539-24.109-76.352
		c16.792,9.202,22.218,44.678,19.519,60.992c1.78-12.832-8.291-32.518-14.924-43.371c-8.093-13.268-19.183-24.561-32.018-33.254
		c22.365,15.098,41.563,58.509,40.245,85.041c-0.953,19.25-7.018,39.14-18.889,54.068c-12.384,15.545-24.658,34.276-39.022,48.546
		c-0.988,0.724-1.46,1.071-1.339,1.091c-0.116-0.016,0.33-0.343,1.265-1.016c-1.239,1.229-2.488,2.438-3.761,3.595
		c10.792-4.338,17.364-13.281,25.133-21.469c1.672-1.597,3.418-3.308,5.233-5.141c14.261-12.965,30.464-32.962,39.833-50.57
		c8.941-16.909,18.226-38.622,23.659-60.825c2.37-5.428,4.466-9.805,5.759-11.601c11.317-15.531,24.608-29.171,24.608-29.171
		c-8.383-0.483-15.736,3.431-15.736,3.431c13.65-25.306,17.325-65.289,12.54-85.895c-4.815-20.603,19.266-39.648,19.266-39.648
		c-5.588-4.661-7.38-4.102-7.38-4.102c7.671-8.522,14.663-9.976,14.663-9.976c-32.972-16.096-54.661,28.214-54.661,28.214
		c4.443-33.916,41.513-44.203,41.513-44.203c-3.792-8.199-9.593-6.14-9.593-6.14c18.453-12.769,47.743-13.646,62.506,13.531
		c14.773,27.248-13.326,36.812-13.326,36.812c17.178,22.509,35.497,2.57,35.497,2.57c-16.197,19.839-11.896,24.752-19.419,40.498
		c-7.516,15.695-29.082,13.189-29.082,13.189c49.031,32.126,95.379-37.516,95.379-37.516c-1.536,9.909,4.588,11.256,4.588,11.256
		C1118.816,781.254,1063.603,742.648,1063.603,742.648z M534.285,390.739c-0.022-0.087-0.045-0.173-0.067-0.26
		c0-0.008-0.001-0.017-0.002-0.025C534.238,390.549,534.262,390.644,534.285,390.739z M531.293,377.632
		c0,0.058,0.001,0.116,0.001,0.174c-0.223-1.082-0.439-2.163-0.647-3.243C530.861,375.587,531.073,376.61,531.293,377.632z
		 M650.8,513.608c-19.098-48.754-1.431-108.91,36.857-122.207c3.666-1.697,7.222-3.067,10.663-4.183
		c-7.494,12.393-13.616,25.758-17.916,39.8c-23.808,71.116,11.806,142.323,40.065,185.287
		c15.781,24.479,30.236,43.286,40.119,55.313c-7.53-6.153-15.328-12.314-23.396-18.414
		C709.001,619.763,670.492,572.527,650.8,513.608z"/>
	<path d="M475.731,505.054c-0.158,0.003-0.2,0.041-0.2,0.041S475.584,505.116,475.731,505.054z"/>
	<path d="M480.628,499.413c-3.258,4.479-4.447,5.431-4.897,5.641c0.471-0.032,2.113,0.242,6.815,2.741
		c6.32,3.535,9.916,3.137,9.955,3.177c-1.11,0.173-2.222,0.356-3.299,0.612c-0.011-0.047,5.214,2.329,10.287,4.169
		c5.091,1.821,9.313,0.762,9.343,0.738l-1.362,1.653c-0.018,0.09,0.711,0.925,6.958,1.557c6.054,0.635,7.681,0.329,7.701,0.276
		l-1.509,2.033c0.003-0.06,5.291-0.252,8.636-0.672c3.174-0.338,6.856-1.132,6.833-1.07l-1.53,2.161
		c-0.023,0.036,2.412-0.243,6.331-0.116c4.458,0.145,6.38-0.259,6.41-0.284c-0.86,0.666-1.707,1.326-2.508,2.003
		c-0.02,0.142,3.169-0.164,11.314-1.024c7.282-0.8,14.721-2.927,19.55-6.961c-1.974-0.379-4.467-1.914-7.471-3.325
		c-0.159,0.292,0.515-0.903-13.886-6.458c-7.289-2.6-20.43-5.356-31.93-5.83c-11.5-0.568-21.083,0.22-21.08,0.238
		c-8.227,0.686-8.369,0.094-0.162-1.363c0.003-0.015,8.742-1.546,20.054-1.931c11.319-0.534,25.232,1.091,34.621,4.152
		c9.369,3.125,13.068,5.55,14.692,6.364c1.634,0.873,1.077,0.495,1.082,0.48c2.343,1.091,4.652,3.73,5.862,5.42
		c3.302-5.528,1.58-14.778-6.841-22.576c-9.438-8.543-14.787-10.023-14.663-10.174c0.776,1.133,1.527,2.258,2.266,3.389
		c-0.003,0.049-2.425-2.009-8.872-4.029c-5.673-1.776-9.061-2.633-9.057-2.667l1.477,2.602c-0.006-0.062-4.82-1.861-9.227-2.86
		c-4.574-1.001-11.862-1.429-11.851-1.343l2.01,2.016c0.018,0.076-2.299-0.614-10.069,0.587c-7.951,1.247-8.463,2.679-8.472,2.604
		l1.96,1.35c0.033,0.011-5.494-0.363-10.788,2.972c-5.301,3.312-9.748,7.499-9.718,7.519c1.175-0.246,2.361-0.455,3.569-0.646
		C488.546,492.688,484.722,494.007,480.628,499.413z"/>
	<path d="M667.342,699.483c0,0,0.041-0.003,0.113-0.084C667.357,699.447,667.342,699.483,667.342,699.483z"/>
	<path d="M668.779,694.446c-0.664,3.742-1.11,4.688-1.324,4.953c0.279-0.161,1.376-0.487,5.027-0.359
		c4.961,0.282,7.062-1.046,7.097-1.033c-0.632,0.441-1.263,0.888-1.851,1.37c-0.021-0.026,3.916-0.132,7.6-0.523
		c3.688-0.406,5.974-2.329,5.984-2.352l-0.343,1.431c0.015,0.059,0.716,0.355,4.761-1.134c3.925-1.427,4.838-2.106,4.832-2.143
		l-0.318,1.708c-0.017-0.038,3.188-1.745,5.127-3.011c1.855-1.165,3.888-2.761,3.892-2.715l-0.294,1.794
		c-0.004,0.028,1.416-0.877,3.873-1.977c2.792-1.252,3.856-2.078,3.867-2.102c-0.329,0.668-0.655,1.332-0.944,1.99
		c0.03,0.093,1.907-1.055,6.672-4.035c4.251-2.684,8.201-6.232,9.968-10.173c-1.331,0.361-3.333,0.163-5.61,0.198
		c-0.01,0.228,0.048-0.713-10.506,0.19c-5.278,0.586-14.214,2.838-21.45,6.002c-7.268,3.107-12.939,6.475-12.934,6.484
		c-4.869,2.898-5.134,2.575-0.509-0.792c-0.003-0.011,4.928-3.582,11.791-7.221c6.821-3.732,15.894-6.913,22.605-7.848
		c6.72-0.888,9.73-0.505,10.978-0.49c1.271,0.046,0.813-0.02,0.812-0.029c1.773-0.031,3.992,0.901,5.247,1.58
		c0.375-4.402-3.47-9.591-11.008-11.87c-8.392-2.433-12.135-1.738-12.104-1.867c0.82,0.466,1.619,0.934,2.416,1.409
		c0.013,0.03-2.101-0.51-6.684,0.181c-4.035,0.612-6.381,1.101-6.391,1.078l1.692,1.162c-0.022-0.037-3.533,0.301-6.55,1.01
		c-3.123,0.758-7.748,2.686-7.715,2.735l1.846,0.639c0.034,0.042-1.603,0.313-6.035,3.389c-4.53,3.161-4.416,4.198-4.443,4.155
		l1.615,0.241c0.023-0.002-3.497,1.43-5.761,5.077c-2.276,3.639-3.759,7.557-3.735,7.561c0.65-0.506,1.32-0.992,2.006-1.471
		C671.639,687.921,669.679,689.886,668.779,694.446z"/>
	<path d="M613.652,410.716c-0.306,0.229-1.383,0.686-5.593,1.264c-5.142,0.803-7.424,2.906-7.753,3.271
		c0.567-0.746,1.143-1.472,1.735-2.175c-0.006-0.029-4.452,1.457-8.618,3.84c-4.179,2.369-5.933,6.243-5.93,6.215l-0.2-1.815
		c0.047,0.034-1.109-0.14-4.84,4.783c-3.635,4.821-4.012,6.637-4.055,6.599l-0.634-2.095c-0.052-0.037-2.412,5.048-3.398,8.504
		c-0.927,3.342-1.459,7.253-1.418,7.281l-1.224-1.944c0.023,0.011-0.627,2.613-1.489,7.094c-0.974,5.095-0.463,7.482-0.497,7.466
		c-0.495-0.911-0.982-1.827-1.469-2.763c0.148-0.031-0.798,4.126,1.553,13.612c2.217,8.53,7.846,13.056,12.786,12.831
		c-0.706-1.433-1.653-3.955-1.539-5.935c0.009,0.001,0.067,0.517,0.067-0.909c0.041-1.391-0.256-4.774,1.039-12.247
		c1.34-7.463,5.296-17.461,9.767-24.927c4.375-7.508,8.583-12.862,8.596-12.858c3.969-5.023,4.319-4.711,0.861,0.603
		c-0.009-0.009-4.025,6.188-7.818,14.171c-3.86,7.951-6.771,17.841-7.663,23.716c-1.474,11.757-0.42,11.735-0.673,11.74
		c-0.138,2.543-0.009,4.785-0.465,6.259c4.481-1.801,8.621-6.058,11.81-10.692c3.54-5.197,4.908-7.245,4.803-7.281
		c-0.75,0.295-1.507,0.627-2.266,0.967c0.026-0.011,0.998-1.165,2.519-4.232c1.338-2.696,2.415-4.244,2.379-4.239l-2.015,0.249
		c-0.054-0.006,1.821-2.21,3.204-4.231c1.501-2.112,3.552-5.62,3.593-5.598l-1.921,0.281c0.041,0.005,0.841-0.985,2.609-5.309
		c1.845-4.454,1.543-5.251,1.475-5.272l-1.612,0.321c0.026-0.012,2.277-2.484,2.898-6.586c0.597-4.102,0.888-8.499,0.915-8.475
		c-0.563,0.638-1.092,1.321-1.613,2.011c-0.015-0.043,1.563-2.331,1.469-7.891C613.05,412.233,613.459,411.023,613.652,410.716z"/>
	<path d="M613.652,410.716c0.095-0.075,0.102-0.121,0.102-0.121S613.713,410.61,613.652,410.716z"/>
	<path d="M383.224,802.242c-0.405-0.104-0.75-0.137-1.053-0.125c0.539,0.01,1.202,0.235,2.01,0.834
		c0.433,0.368,0.705,0.85,0.838,1.39C384.777,803.281,384.161,802.454,383.224,802.242z"/>
	<path d="M380.246,803.869c0,0.202,0.032-0.754,0.741-1.336C380.282,803.117,380.093,804.082,380.246,803.869z"/>
	<path d="M385.095,804.771c-0.016-0.147-0.042-0.291-0.076-0.431C385.051,804.48,385.076,804.624,385.095,804.771z"/>
	<path d="M381.021,802.505c0.274-0.214,0.648-0.366,1.15-0.388C381.692,802.109,381.314,802.273,381.021,802.505z"/>
	<path d="M381.021,802.505c-0.012,0.009-0.022,0.018-0.034,0.028C380.999,802.523,381.009,802.514,381.021,802.505z"/>
	<path d="M358.481,821.383c0.989,3.417,4.568,5.371,7.974,4.392c3.418-1.007,5.379-4.573,4.375-7.986
		c-0.985-3.401-4.558-5.367-7.975-4.378C359.442,814.415,357.492,817.977,358.481,821.383z"/>
	<path d="M387.038,820.454c1.283-0.359,2.001-2.549,0.15-4.113c-1.798-1.36-3.402-0.545-3.956,0.736
		c-0.58,1.328,0.129,2.883,0.607,3.293C384.299,820.648,385.596,820.948,387.038,820.454z"/>
	<path d="M395.077,797.655c0.356-0.821-0.03-1.763-0.842-2.112c-0.815-0.353-1.774,0.029-2.11,0.854
		c-0.353,0.814,0.03,1.754,0.845,2.095C393.784,798.852,394.735,798.467,395.077,797.655z"/>
	<path d="M689.325,829.223c1.038-0.601,2.213-1.238,3.514-1.887c-3.153,1.529-5.619,3.058-7.435,4.275
		C686.478,830.932,687.777,830.133,689.325,829.223z"/>
	<path d="M685.404,831.61c-2.107,1.332-3.321,2.188-3.727,2.462C682.18,833.912,683.393,832.958,685.404,831.61z"/>
	<path d="M681.678,834.072c-0.029,0.01-0.066,0.026-0.091,0.03C681.472,834.206,681.506,834.19,681.678,834.072z"/>
</g>
</svg>
